<?xml version="1.0"?>
<svg xmlns="http://www.w3.org/2000/svg" xmlns:xlink="http://www.w3.org/1999/xlink" xmlns:svgjs="http://svgjs.com/svgjs" version="1.1" width="512" height="512" x="0" y="0" viewBox="0 0 512 512" style="enable-background:new 0 0 512 512" xml:space="preserve" class=""><g><g xmlns="http://www.w3.org/2000/svg"><path d="m448 0h-332v52h-52v460h332v-52h52zm-372 500v-436h228v80h80v356zm240-427.515 59.515 59.515h-59.515zm120 375.515h-40v-312.485l-83.515-83.515h-184.485v-40h308z" fill="#ffffff" data-original="#000000" style="" class=""/><path d="m118 116h96v12h-96z" fill="#ffffff" data-original="#000000" style="" class=""/><path d="m118 148h64v12h-64z" fill="#ffffff" data-original="#000000" style="" class=""/><path d="m118 196h224v12h-224z" fill="#ffffff" data-original="#000000" style="" class=""/><path d="m118 228h224v12h-224z" fill="#ffffff" data-original="#000000" style="" class=""/><path d="m118 292h224v12h-224z" fill="#ffffff" data-original="#000000" style="" class=""/><path d="m118 324h160v12h-160z" fill="#ffffff" data-original="#000000" style="" class=""/><path d="m118 260h224v12h-224z" fill="#ffffff" data-original="#000000" style="" class=""/><path d="m262 372h80v12h-80z" fill="#ffffff" data-original="#000000" style="" class=""/></g></g></svg>
