<?xml version="1.0"?>
<svg xmlns="http://www.w3.org/2000/svg" xmlns:xlink="http://www.w3.org/1999/xlink" xmlns:svgjs="http://svgjs.com/svgjs" version="1.1" width="512" height="512" x="0" y="0" viewBox="0 0 74 74" style="enable-background:new 0 0 512 512" xml:space="preserve" class=""><g><path xmlns="http://www.w3.org/2000/svg" d="m19.065 66.4h-8.946a1 1 0 0 1 -1-1v-17.317a1 1 0 0 1 1-1h8.946a1 1 0 0 1 1 1v17.317a1 1 0 0 1 -1 1zm-7.946-2h6.946v-15.317h-6.946z" fill="#ffffff" data-original="#000000" style="" class=""/><path xmlns="http://www.w3.org/2000/svg" d="m33.657 66.4h-8.947a1 1 0 0 1 -1-1v-26.163a1 1 0 0 1 1-1h8.947a1 1 0 0 1 1 1v26.163a1 1 0 0 1 -1 1zm-7.947-2h6.947v-24.163h-6.947z" fill="#ffffff" data-original="#000000" style="" class=""/><path xmlns="http://www.w3.org/2000/svg" d="m48.248 66.4h-8.948a1 1 0 0 1 -1-1v-35.926a1 1 0 0 1 1-1h8.946a1 1 0 0 1 1 1v35.926a1 1 0 0 1 -.998 1zm-7.946-2h6.946v-33.926h-6.948z" fill="#ffffff" data-original="#000000" style="" class=""/><path xmlns="http://www.w3.org/2000/svg" d="m62.84 66.4h-8.946a1 1 0 0 1 -1-1v-45.776a1 1 0 0 1 1-1h8.946a1 1 0 0 1 1 1v45.776a1 1 0 0 1 -1 1zm-7.946-2h6.946v-43.776h-6.946z" fill="#ffffff" data-original="#000000" style="" class=""/><path xmlns="http://www.w3.org/2000/svg" d="m70.544 72h-67.088a1 1 0 0 1 -1-1v-5.6a1 1 0 0 1 1-1h67.088a1 1 0 0 1 1 1v5.6a1 1 0 0 1 -1 1zm-66.088-2h65.088v-3.6h-65.088z" fill="#ffffff" data-original="#000000" style="" class=""/><path xmlns="http://www.w3.org/2000/svg" d="m4.837 38.151a1 1 0 0 1 -.166-1.985c23.151-3.927 46.208-19.966 57.017-33.782a1 1 0 1 1 1.575 1.232c-11.046 14.118-34.6 30.51-58.258 34.521a.96.96 0 0 1 -.168.014z" fill="#ffffff" data-original="#000000" style="" class=""/><path xmlns="http://www.w3.org/2000/svg" d="m61.732 12.727h-.086a1 1 0 0 1 -.911-1.082l.639-7.491-7.962 1.03a1 1 0 1 1 -.256-1.984l9.192-1.19a1 1 0 0 1 1.124 1.077l-.744 8.727a1 1 0 0 1 -.996.913z" fill="#ffffff" data-original="#000000" style="" class=""/></g></svg>
