<?xml version="1.0"?>
<svg xmlns="http://www.w3.org/2000/svg" xmlns:xlink="http://www.w3.org/1999/xlink" xmlns:svgjs="http://svgjs.com/svgjs" version="1.1" width="512" height="512" x="0" y="0" viewBox="0 0 512 512" style="enable-background:new 0 0 512 512" xml:space="preserve" class=""><g>
<g xmlns="http://www.w3.org/2000/svg">
	<g>
		<path d="M470.288,460.685v-0.001V157.551H383.89v303.133h-27.661V286.297h-86.398v174.387H242.17V237.251h-86.398v223.433H128.11    v-108.31H41.712v108.311H0v30h512v-30H470.288z M98.11,460.685H71.712v-78.311H98.11V460.685z M212.169,460.684h-26.398V267.251    h26.398V460.684z M326.229,460.684h-26.398V316.297h26.398V460.684z M440.288,460.684H413.89V187.551h26.398V460.684z" fill="#aad12e" data-original="#000000" style="" class=""/>
	</g>
</g>
<g xmlns="http://www.w3.org/2000/svg">
	<g>
		<path d="M427.088,21.315c-27.383,0-49.662,22.278-49.662,49.662c0,9.308,2.579,18.022,7.053,25.476l-51.295,57.9    c-6.164-2.749-12.981-4.291-20.155-4.291c-14.978,0-28.418,6.675-37.531,17.195l-27.112-11.658c0.16-1.62,0.246-3.26,0.246-4.921    c0-27.383-22.278-49.662-49.662-49.662c-27.384,0-49.661,22.278-49.661,49.662c0,8.379,2.094,16.275,5.774,23.206l-47.668,47.669    c-6.761-3.453-14.405-5.414-22.503-5.414c-27.383,0-49.661,22.278-49.661,49.661c0,27.383,22.277,49.661,49.66,49.661    s49.662-22.278,49.662-49.662c0-8.379-2.094-16.275-5.774-23.206l47.668-47.668c6.761,3.453,14.405,5.414,22.503,5.414    c14.978,0,28.418-6.675,37.531-17.195l27.112,11.658c-0.16,1.62-0.246,3.26-0.246,4.921c0,27.383,22.278,49.662,49.662,49.662    s49.661-22.278,49.661-49.662c0-9.308-2.579-18.022-7.052-25.476l51.295-57.9c6.164,2.749,12.981,4.291,20.155,4.291    c27.383,0,49.661-22.278,49.661-49.661C476.749,43.594,454.471,21.315,427.088,21.315z M84.911,285.462    c-10.842,0-19.661-8.821-19.661-19.662c0-10.841,8.82-19.661,19.661-19.661s19.662,8.82,19.662,19.661    C104.573,276.641,95.753,285.462,84.911,285.462z M198.97,170.339c-10.842,0-19.661-8.82-19.661-19.661s8.82-19.662,19.661-19.662    s19.662,8.82,19.662,19.662C218.632,161.52,209.812,170.339,198.97,170.339z M313.03,219.386c-10.841,0-19.662-8.82-19.662-19.662    c0-10.842,8.82-19.661,19.662-19.661c10.841,0,19.661,8.82,19.661,19.661S323.871,219.386,313.03,219.386z M427.089,90.639    c-10.841,0-19.662-8.82-19.662-19.661s8.821-19.662,19.662-19.662s19.661,8.82,19.661,19.662    C446.75,81.82,437.93,90.639,427.089,90.639z" fill="#aad12e" data-original="#000000" style="" class=""/>
	</g>
</g>
<g xmlns="http://www.w3.org/2000/svg">
</g>
<g xmlns="http://www.w3.org/2000/svg">
</g>
<g xmlns="http://www.w3.org/2000/svg">
</g>
<g xmlns="http://www.w3.org/2000/svg">
</g>
<g xmlns="http://www.w3.org/2000/svg">
</g>
<g xmlns="http://www.w3.org/2000/svg">
</g>
<g xmlns="http://www.w3.org/2000/svg">
</g>
<g xmlns="http://www.w3.org/2000/svg">
</g>
<g xmlns="http://www.w3.org/2000/svg">
</g>
<g xmlns="http://www.w3.org/2000/svg">
</g>
<g xmlns="http://www.w3.org/2000/svg">
</g>
<g xmlns="http://www.w3.org/2000/svg">
</g>
<g xmlns="http://www.w3.org/2000/svg">
</g>
<g xmlns="http://www.w3.org/2000/svg">
</g>
<g xmlns="http://www.w3.org/2000/svg">
</g>
</g></svg>
